<svg width="1440" height="900" viewBox="0 0 1440 900" fill="none" xmlns="http://www.w3.org/2000/svg">
<g clip-path="url(#clip0_895_26821)">
<path d="M0 0H1440V900H0V0Z" fill="#06003D"/>
<path d="M2268.93 669.669L3200 1922H1996.91L1314.7 875.033V1922H263.835V775.817C263.835 710.742 319.098 669.798 406.799 669.798H2268.93V669.669ZM263.835 -610H1314.7V436.967L1927.91 -610H3131.01L2269.1 638.865H406.97C319.442 638.865 264.006 597.792 264.006 532.846V-610H263.835ZM222.302 1921.87H-828.56V950.119H-1459.97V1921.87H-2534V669.541H79.5093C167.038 669.541 222.473 710.614 222.473 775.56V1921.74L222.302 1921.87ZM-2534 638.865V-610H-1459.97V354.822H-828.56V-610H222.302V532.846C222.302 597.921 167.038 638.865 79.3376 638.865H-2534Z" fill="#4008A1"/>
<rect x="1250" width="190" height="506" fill="#4008A1"/>
<rect x="1250" y="741" width="190" height="168" fill="#4008A1"/>
</g>
<defs>
<clipPath id="clip0_895_26821">
<rect width="1440" height="900" fill="white"/>
</clipPath>
</defs>
</svg>
