<svg width="375" height="667" viewBox="0 0 375 667" fill="none" xmlns="http://www.w3.org/2000/svg">
<rect width="375" height="667" fill="#06003D"/>
<path d="M749.859 526.066L959 807H688.755L535.514 572.135V807H299.464V549.878C299.464 535.28 311.877 526.095 331.577 526.095H749.859V526.066ZM299.464 239H535.514V473.865L673.258 239H943.502L749.897 519.156H331.616C311.954 519.156 299.502 509.942 299.502 495.373V239H299.464ZM290.134 806.971H54.0846V588.979H-87.7458V806.971H-329V526.038H258.06C277.721 526.038 290.173 535.251 290.173 549.821V806.942L290.134 806.971ZM-329 519.156V239H-87.7458V455.437H54.0846V239H290.134V495.373C290.134 509.971 277.721 519.156 258.021 519.156H-329Z" fill="#4008A1"/>
<rect width="290" height="467" fill="#4008A1"/>
<rect y="540" width="242" height="127" fill="#4008A1"/>
<rect x="299" width="100" height="247" fill="#4008A1"/>
</svg>
