<svg viewBox="0 0 1811 1069" fill="none" xmlns="http://www.w3.org/2000/svg">
  <path d="M1516.23 540.271L1810.16 1069H1430.36L1214.99 626.975V1069H883.247V585.086C883.247 557.612 900.693 540.325 928.379 540.325H1516.23V540.271ZM883.247 0H1214.99V442.025L1408.58 0H1788.38L1516.29 527.266H928.433C900.802 527.266 883.301 509.925 883.301 482.505V0H883.247ZM870.135 1068.95H538.39V658.676H339.061V1068.95H0V540.217H825.057C852.689 540.217 870.19 557.558 870.19 584.978V1068.89L870.135 1068.95ZM0 527.266V0H339.061V407.344H538.39V0H870.135V482.505C870.135 509.979 852.689 527.266 825.003 527.266H0Z" fill="#385CF5"/>
  <path d="M1516.23 540.271L1810.16 1069H1430.36L1214.99 626.975V1069H883.247V585.086C883.247 557.612 900.693 540.325 928.379 540.325H1516.23V540.271ZM883.247 0H1214.99V442.025L1408.58 0H1788.38L1516.29 527.266H928.433C900.802 527.266 883.301 509.925 883.301 482.505V0H883.247ZM870.135 1068.95H538.39V658.676H339.061V1068.95H0V540.217H825.057C852.689 540.217 870.19 557.558 870.19 584.978V1068.89L870.135 1068.95ZM0 527.266V0H339.061V407.344H538.39V0H870.135V482.505C870.135 509.979 852.689 527.266 825.003 527.266H0Z" fill="#4008A1"/>
  <path d="M1516.23 540.271L1810.16 1069H1430.36L1214.99 626.975V1069H883.247V585.086C883.247 557.612 900.693 540.325 928.379 540.325H1516.23V540.271ZM883.247 0H1214.99V442.025L1408.58 0H1788.38L1516.29 527.266H928.433C900.802 527.266 883.301 509.925 883.301 482.505V0H883.247ZM870.135 1068.95H538.39V658.676H339.061V1068.95H0V540.217H825.057C852.689 540.217 870.19 557.558 870.19 584.978V1068.89L870.135 1068.95ZM0 527.266V0H339.061V407.344H538.39V0H870.135V482.505C870.135 509.979 852.689 527.266 825.003 527.266H0Z" fill="#385CF5"/>
  <path d="M1516.23 540.271L1810.16 1069H1430.36L1214.99 626.975V1069H883.247V585.086C883.247 557.612 900.693 540.325 928.379 540.325H1516.23V540.271ZM883.247 0H1214.99V442.025L1408.58 0H1788.38L1516.29 527.266H928.433C900.802 527.266 883.301 509.925 883.301 482.505V0H883.247ZM870.135 1068.95H538.39V658.676H339.061V1068.95H0V540.217H825.057C852.689 540.217 870.19 557.558 870.19 584.978V1068.89L870.135 1068.95ZM0 527.266V0H339.061V407.344H538.39V0H870.135V482.505C870.135 509.979 852.689 527.266 825.003 527.266H0Z" fill="#F2F2F0"/>
  <path d="M1516.23 540.271L1810.16 1069H1430.36L1214.99 626.975V1069H883.247V585.086C883.247 557.612 900.693 540.325 928.379 540.325H1516.23V540.271ZM883.247 0H1214.99V442.025L1408.58 0H1788.38L1516.29 527.266H928.433C900.802 527.266 883.301 509.925 883.301 482.505V0H883.247ZM870.135 1068.95H538.39V658.676H339.061V1068.95H0V540.217H825.057C852.689 540.217 870.19 557.558 870.19 584.978V1068.89L870.135 1068.95ZM0 527.266V0H339.061V407.344H538.39V0H870.135V482.505C870.135 509.979 852.689 527.266 825.003 527.266H0Z" fill="#FF00D4"/>
  <path d="M1516.23 540.271L1810.16 1069H1430.36L1214.99 626.975V1069H883.247V585.086C883.247 557.612 900.693 540.325 928.379 540.325H1516.23V540.271ZM883.247 0H1214.99V442.025L1408.58 0H1788.38L1516.29 527.266H928.433C900.802 527.266 883.301 509.925 883.301 482.505V0H883.247ZM870.135 1068.95H538.39V658.676H339.061V1068.95H0V540.217H825.057C852.689 540.217 870.19 557.558 870.19 584.978V1068.89L870.135 1068.95ZM0 527.266V0H339.061V407.344H538.39V0H870.135V482.505C870.135 509.979 852.689 527.266 825.003 527.266H0Z" fill="#70FCFC"/>
  <path d="M1516.23 540.271L1810.16 1069H1430.36L1214.99 626.975V1069H883.247V585.086C883.247 557.612 900.693 540.325 928.379 540.325H1516.23V540.271ZM883.247 0H1214.99V442.025L1408.58 0H1788.38L1516.29 527.266H928.433C900.802 527.266 883.301 509.925 883.301 482.505V0H883.247ZM870.135 1068.95H538.39V658.676H339.061V1068.95H0V540.217H825.057C852.689 540.217 870.19 557.558 870.19 584.978V1068.89L870.135 1068.95ZM0 527.266V0H339.061V407.344H538.39V0H870.135V482.505C870.135 509.979 852.689 527.266 825.003 527.266H0Z" fill="#385CF5"/>
  <path d="M1516.23 540.271L1810.16 1069H1430.36L1214.99 626.975V1069H883.247V585.086C883.247 557.612 900.693 540.325 928.379 540.325H1516.23V540.271ZM883.247 0H1214.99V442.025L1408.58 0H1788.38L1516.29 527.266H928.433C900.802 527.266 883.301 509.925 883.301 482.505V0H883.247ZM870.135 1068.95H538.39V658.676H339.061V1068.95H0V540.217H825.057C852.689 540.217 870.19 557.558 870.19 584.978V1068.89L870.135 1068.95ZM0 527.266V0H339.061V407.344H538.39V0H870.135V482.505C870.135 509.979 852.689 527.266 825.003 527.266H0Z" fill="#4008A1"/>
  <path class="logo-svg--main" d="M1516.23 540.271L1810.16 1069H1430.36L1214.99 626.975V1069H883.247V585.086C883.247 557.612 900.693 540.325 928.379 540.325H1516.23V540.271ZM883.247 0H1214.99V442.025L1408.58 0H1788.38L1516.29 527.266H928.433C900.802 527.266 883.301 509.925 883.301 482.505V0H883.247ZM870.135 1068.95H538.39V658.676H339.061V1068.95H0V540.217H825.057C852.689 540.217 870.19 557.558 870.19 584.978V1068.89L870.135 1068.95ZM0 527.266V0H339.061V407.344H538.39V0H870.135V482.505C870.135 509.979 852.689 527.266 825.003 527.266H0Z" fill="currentColor"/>
</svg>