<svg width="46" height="46" viewBox="0 0 46 46" fill="none" xmlns="http://www.w3.org/2000/svg">
  <path d="M0.648415 23.6489C15.8278 25.4489 21.4767 38.7435 22.4873 45.588C22.5204 45.8116 22.7099 45.9746 22.9359 45.9746C23.1645 45.9746 23.3567 45.7983 23.3852 45.5715C25.2939 30.4099 38.4446 23.9706 45.2314 23.6746C45.4993 23.6629 45.7129 23.4465 45.7129 23.1784C45.7129 22.928 45.5169 22.7186 45.2681 22.6912C29.801 20.9828 24.2928 7.76252 23.3882 0.91045C23.3562 0.667629 23.1518 0.4879 22.9068 0.4879C22.6631 0.4879 22.4579 0.675549 22.4266 0.917274C20.4629 16.0554 7.80648 22.1785 0.666752 22.7107C0.418316 22.7293 0.226181 22.9332 0.226181 23.1824C0.226181 23.4208 0.41161 23.6208 0.648415 23.6489Z" fill="currentColor" />
</svg>
